<svg width="50" height="50" viewBox="0 0 50 50" fill="none" xmlns="http://www.w3.org/2000/svg">
<path fill-rule="evenodd" clip-rule="evenodd" d="M25 50C38.8071 50 50 38.8071 50 25C50 11.1929 38.8071 0 25 0C11.1929 0 0 11.1929 0 25C0 38.8071 11.1929 50 25 50Z" fill="#4B4B4B"/>
<path fill-rule="evenodd" clip-rule="evenodd" d="M34.803 36.2363H15.3472C13.7748 36.2363 12.5 34.9562 12.5 33.3773V18.8441C12.5 17.2652 13.7748 15.9851 15.3472 15.9851H34.803C36.3754 15.9851 37.6502 17.2652 37.6502 18.8441V33.3773C37.6502 34.9562 36.3754 36.2363 34.803 36.2363V36.2363Z" stroke="white"/>
<path d="M12.9746 23.875H37.176" stroke="white"/>
<path d="M22.2281 24.0259V36.1767H19.3809V24.0259" stroke="white"/>
<path d="M27.5 36.1767V24.0259" stroke="white"/>
<path d="M30.5 24.0259V36.1767" stroke="white"/>
<path d="M21.516 15.4488C21.516 15.4488 21.338 11.875 25.075 11.875C28.575 11.875 28.634 15.4488 28.634 15.4488" stroke="white"/>
</svg>
