<svg width="134" height="14" viewBox="0 0 134 14" fill="none" xmlns="http://www.w3.org/2000/svg">
<path d="M1 7C1 3.68629 3.68629 1 7 1C10.3137 1 13 3.68629 13 7C13 10.3137 10.3137 13 7 13C3.68629 13 1 10.3137 1 7Z" stroke="#4B4B4B" stroke-width="2"/>
<path d="M31 7C31 3.68629 33.6863 1 37 1C40.3137 1 43 3.68629 43 7C43 10.3137 40.3137 13 37 13C33.6863 13 31 10.3137 31 7Z" stroke="#4B4B4B" stroke-width="2"/>
<path d="M61 7C61 3.68629 63.6863 1 67 1C70.3137 1 73 3.68629 73 7C73 10.3137 70.3137 13 67 13C63.6863 13 61 10.3137 61 7Z" fill="#4B4B4B" stroke="#4B4B4B" stroke-width="2"/>
<path d="M91 7C91 3.68629 93.6863 1 97 1C100.314 1 103 3.68629 103 7C103 10.3137 100.314 13 97 13C93.6863 13 91 10.3137 91 7Z" stroke="#4B4B4B" stroke-width="2"/>
<path d="M121 7C121 3.68629 123.686 1 127 1C130.314 1 133 3.68629 133 7C133 10.3137 130.314 13 127 13C123.686 13 121 10.3137 121 7Z" stroke="#4B4B4B" stroke-width="2"/>
</svg>
