<svg width="60" height="65" viewBox="0 0 60 65" fill="none" xmlns="http://www.w3.org/2000/svg">
<path fill-rule="evenodd" clip-rule="evenodd" d="M55.4652 0.996902L0.99707 55.465V0.996902H55.4652Z" stroke="#EBCB80" stroke-width="2" stroke-linecap="round" stroke-linejoin="round"/>
<path fill-rule="evenodd" clip-rule="evenodd" d="M33.6779 10.5288L11.8906 32.316V10.5288H33.6779Z" stroke="#EBCB80" stroke-width="2" stroke-linecap="round" stroke-linejoin="round"/>
<path d="M2.3584 7.80541H6.4435" stroke="#EBCB80" stroke-width="2" stroke-linecap="round" stroke-linejoin="round"/>
<path d="M2.3584 21.4224H6.4435" stroke="#EBCB80" stroke-width="2" stroke-linecap="round" stroke-linejoin="round"/>
<path d="M2.3584 14.6139H6.4435" stroke="#EBCB80" stroke-width="2" stroke-linecap="round" stroke-linejoin="round"/>
<path d="M2.3584 35.0395H6.4435" stroke="#EBCB80" stroke-width="2" stroke-linecap="round" stroke-linejoin="round"/>
<path d="M2.3584 28.2309H6.4435" stroke="#EBCB80" stroke-width="2" stroke-linecap="round" stroke-linejoin="round"/>
<path d="M21.8335 50.6787L46.8873 23.3945" stroke="#EBCB80" stroke-width="2" stroke-linecap="round" stroke-linejoin="round"/>
<path d="M48.8823 63.5555L54.2645 26.9064" stroke="#EBCB80" stroke-width="2" stroke-linecap="round" stroke-linejoin="round"/>
<path fill-rule="evenodd" clip-rule="evenodd" d="M54.6729 16.544C57.3872 17.8361 58.5418 21.089 57.2497 23.8032C55.9576 26.5175 52.7047 27.6721 49.9904 26.38C47.2762 25.0877 46.1216 21.835 47.4137 19.1207C48.7059 16.4065 51.9586 15.2519 54.6729 16.544V16.544Z" stroke="#EBCB80" stroke-width="2" stroke-linecap="round" stroke-linejoin="round"/>
<path fill-rule="evenodd" clip-rule="evenodd" d="M52.9169 20.2324C53.5954 20.5554 53.8841 21.3686 53.5611 22.0473C53.238 22.7259 52.4249 23.0145 51.7462 22.6914C51.0677 22.3684 50.779 21.5552 51.1021 20.8767C51.4251 20.1981 52.2383 19.9094 52.9169 20.2324V20.2324Z" stroke="#EBCB80" stroke-width="2" stroke-linecap="round" stroke-linejoin="round"/>
<path d="M58.1849 9.16711L55.2583 15.3145" stroke="#EBCB80" stroke-width="2" stroke-linecap="round" stroke-linejoin="round"/>
<path d="M33.5986 29.1332C39.9465 37.2308 47.1206 41.102 58.1885 40.8395" stroke="#EBCB80" stroke-width="2" stroke-linecap="round" stroke-linejoin="round"/>
</svg>
