<svg width="50" height="50" viewBox="0 0 50 50" fill="none" xmlns="http://www.w3.org/2000/svg">
<path fill-rule="evenodd" clip-rule="evenodd" d="M25 50C38.8071 50 50 38.8071 50 25C50 11.1929 38.8071 0 25 0C11.1929 0 0 11.1929 0 25C0 38.8071 11.1929 50 25 50Z" fill="#4B4B4B"/>
<path fill-rule="evenodd" clip-rule="evenodd" d="M35.304 34.9868C35.3843 35.3007 35.2923 35.6379 35.063 35.8672L34.0859 36.8459C34.0189 36.9129 33.921 36.9443 33.83 36.9326C33.7359 36.9198 33.654 36.8645 33.6066 36.782L27.4359 25.9703L26.8327 25.8682L19.888 31.9305L20.7582 35.6523C20.8338 35.9767 20.7385 36.3113 20.5034 36.5469L19.8619 37.1884C19.7923 37.2586 19.6944 37.2879 19.5955 37.2677C19.4986 37.248 19.4189 37.1815 19.3822 37.089L17.9465 33.4975L16.2784 31.8406L12.6619 30.3922C12.5811 30.3597 12.5231 30.2895 12.5056 30.2033C12.4875 30.1182 12.5141 30.0305 12.5768 29.9677L13.2476 29.2964C13.4327 29.1102 13.6784 29.0097 13.9327 29.0097C14.0072 29.0097 14.0827 29.0188 14.1572 29.0363L17.8651 29.9055L23.921 22.9517L23.8189 22.3491L12.9588 16.1363C12.8901 16.0969 12.8449 16.0299 12.8343 15.9512C12.8242 15.8746 12.8508 15.7964 12.9056 15.7411L13.9141 14.7315C14.155 14.4906 14.5098 14.3938 14.838 14.4783L28.8093 18.0592L32.6965 14.1677C33.0848 13.7783 33.6018 13.564 34.1513 13.564C34.6933 13.564 35.2236 13.7842 35.6072 14.1682C35.9901 14.5517 36.2104 15.0831 36.2104 15.6257C36.2104 16.1682 35.9901 16.6991 35.6066 17.0831L31.7205 20.9741L35.304 34.9868Z" stroke="white"/>
</svg>
