<svg width="65" height="60" viewBox="0 0 65 60" fill="none" xmlns="http://www.w3.org/2000/svg">
<path fill-rule="evenodd" clip-rule="evenodd" d="M63.6354 6.15544C63.6354 3.30839 61.3237 0.996765 58.4767 0.996765H6.15561C3.30856 0.996765 0.99707 3.30839 0.99707 6.15544V47.5829C0.99707 50.43 3.30856 52.7414 6.15561 52.7414H58.4767C61.3237 52.7414 63.6354 50.43 63.6354 47.5829V6.15544Z" stroke="#EBCB80" stroke-width="2" stroke-linecap="round"/>
<path fill-rule="evenodd" clip-rule="evenodd" d="M54.1033 13.1433C54.1033 11.1992 52.5249 9.62097 50.581 9.62097H14.051C12.107 9.62097 10.5288 11.1992 10.5288 13.1433V40.5951C10.5288 42.5392 12.107 44.1174 14.051 44.1174H50.581C52.5249 44.1174 54.1033 42.5392 54.1033 40.5951V13.1433Z" stroke="#EBCB80" stroke-width="2" stroke-linecap="round"/>
<path d="M32.3857 18.2904L33.3843 18.3441L33.42 17.6801L32.8215 17.3903L32.3857 18.2904ZM28.9219 17.3624L28.9944 16.365L28.3314 16.3168L28.0303 16.9096L28.9219 17.3624ZM27.6415 19.8837L27.7256 20.8802L28.2808 20.8333L28.5332 20.3365L27.6415 19.8837ZM23.9945 21.2837L23.6349 22.2168L24.1548 22.4172L24.5988 22.0804L23.9945 21.2837ZM21.3559 20.2668L21.7155 19.3337L21.0952 19.0946L20.6347 19.5741L21.3559 20.2668ZM19.4028 23.2741L18.4767 22.8969L18.2259 23.5126L18.6967 23.9821L19.4028 23.2741ZM21.4051 25.271L22.3787 25.499L22.5058 24.9564L22.1112 24.563L21.4051 25.271ZM21.6096 29.172L22.3859 29.8024L22.7372 29.3698L22.5541 28.8435L21.6096 29.172ZM19.827 31.3674L19.0507 30.737L18.6316 31.2531L18.9454 31.8393L19.827 31.3674ZM22.0836 34.1541L21.4387 34.9183L21.9468 35.3471L22.5387 35.0445L22.0836 34.1541ZM24.6017 32.867L25.1194 32.0114L24.6427 31.723L24.1465 31.9766L24.6017 32.867ZM28.375 33.8779L29.2144 33.3344L28.9115 32.8667L28.3543 32.8781L28.375 33.8779ZM29.9119 36.2516L29.0725 36.7951L29.4338 37.3532L30.0883 37.236L29.9119 36.2516ZM33.2596 34.9666L33.7873 35.8161L34.352 35.4653L34.2471 34.8089L33.2596 34.9666ZM32.8136 32.1742L32.1598 31.4174L31.7382 31.7817L31.8261 32.3319L32.8136 32.1742ZM34.9411 28.8979L34.6836 27.9316L34.1451 28.0751L33.9839 28.6086L34.9411 28.8979ZM37.6736 28.1697L37.9311 29.1359L38.5736 28.9647L38.6643 28.3061L37.6736 28.1697ZM37.486 24.5888L38.4569 24.3495L38.2979 23.704L37.6411 23.6009L37.486 24.5888ZM34.6923 24.1501L33.7706 24.5379L33.9867 25.0515L34.5371 25.1379L34.6923 24.1501ZM32.2339 21.1143L31.2353 21.0606L31.2054 21.6171L31.6629 21.9353L32.2339 21.1143ZM30.5468 27.4898L29.5809 27.2309L29.5809 27.231L30.5468 27.4898ZM27.6102 29.1852L27.8691 28.2193L27.8689 28.2193L27.6102 29.1852ZM25.9147 26.2486L26.8806 26.5075L26.8807 26.5073L25.9147 26.2486ZM32.8215 17.3903C31.649 16.8276 30.2913 16.4637 28.9944 16.365L28.8495 18.3598C29.9585 18.4359 30.9513 18.7019 31.9499 19.1904L32.8215 17.3903ZM28.0303 16.9096L26.7499 19.4309L28.5332 20.3365L29.8136 17.8152L28.0303 16.9096ZM27.5575 18.8872C26.0944 19.0206 24.5669 19.6069 23.3902 20.4869L24.5988 22.0804C25.5392 21.3547 26.5412 20.9701 27.7256 20.8802L27.5575 18.8872ZM24.3541 20.3506L21.7155 19.3337L20.9963 21.1999L23.6349 22.2168L24.3541 20.3506ZM20.6347 19.5741C19.7371 20.5152 18.9714 21.6941 18.4767 22.8969L20.329 23.6513C20.7441 22.6201 21.304 21.7581 22.0772 20.9594L20.6347 19.5741ZM18.6967 23.9821L20.6989 25.9791L22.1112 24.563L20.109 22.566L18.6967 23.9821ZM20.4314 25.043C20.1062 26.4758 20.1919 28.1097 20.6651 29.5005L22.5541 28.8435C22.1545 27.725 22.0983 26.6532 22.3787 25.499L20.4314 25.043ZM20.8333 28.5417L19.0507 30.737L20.6033 31.9977L22.3859 29.8024L20.8333 28.5417ZM18.9454 31.8393C19.5631 32.9838 20.4477 34.0762 21.4387 34.9183L22.7285 33.3898C21.8761 32.6764 21.2293 31.8776 20.7086 30.8954L18.9454 31.8393ZM22.5387 35.0445L25.0568 33.7574L24.1465 31.9766L21.6285 33.2636L22.5387 35.0445ZM24.084 33.7226C25.346 34.4746 26.9264 34.898 28.3956 34.8777L28.3543 32.8781C27.1671 32.9126 26.1303 32.6348 25.1194 32.0114L24.084 33.7226ZM27.5355 34.4214L29.0725 36.7951L30.7513 35.7081L29.2144 33.3344L27.5355 34.4214ZM30.0883 37.236C31.3676 37.0022 32.6801 36.4985 33.7873 35.8161L32.732 34.1171C31.7902 34.7074 30.8305 35.0757 29.7355 35.2673L30.0883 37.236ZM34.2471 34.8089L33.801 32.0164L31.8261 32.3319L32.2722 35.1244L34.2471 34.8089ZM33.4673 32.9309C34.5724 31.963 35.4636 30.5908 35.8983 29.1873L33.9839 28.6086C33.6497 29.7484 33.0651 30.6486 32.1598 31.4174L33.4673 32.9309ZM35.1986 29.8642L37.9311 29.1359L37.4161 27.2034L34.6836 27.9316L35.1986 29.8642ZM38.6643 28.3061C38.8372 27.0172 38.7637 25.6133 38.4569 24.3495L36.515 24.8281C36.7853 25.9061 36.839 26.9327 36.683 28.0333L38.6643 28.3061ZM37.6411 23.6009L34.8474 23.1622L34.5371 25.1379L37.3308 25.5767L37.6411 23.6009ZM35.614 23.7622C35.035 22.4119 34.0053 21.1403 32.8048 20.2933L31.6629 21.9353C32.6436 22.6052 33.3191 23.4393 33.7706 24.5379L35.614 23.7622ZM33.2324 21.168L33.3843 18.3441L31.3872 18.2367L31.2353 21.0606L33.2324 21.168ZM28.5926 25.5191C29.3374 25.7186 29.7805 26.4861 29.5809 27.2309L31.5127 27.7487C31.9983 25.9369 30.922 24.0726 29.1101 23.5872L28.5926 25.5191ZM29.5809 27.231C29.3813 27.9758 28.6138 28.4189 27.8691 28.2193L27.3513 30.1511C29.163 30.6367 31.0274 29.5604 31.5128 27.7485L29.5809 27.231ZM27.8689 28.2193C27.1241 28.0197 26.681 27.2522 26.8806 26.5075L24.9488 25.9897C24.4632 27.8014 25.5395 29.6658 27.3514 30.1512L27.8689 28.2193ZM26.8807 26.5073C27.0802 25.7625 27.8477 25.3194 28.5925 25.519L29.1103 23.5872C27.2985 23.1016 25.4342 24.1779 24.9488 25.9898L26.8807 26.5073Z" fill="#EBCB80"/>
<path d="M45.9331 21.4223V30.9542" stroke="#EBCB80" stroke-width="2" stroke-linecap="round"/>
<path fill-rule="evenodd" clip-rule="evenodd" d="M45.9329 29.5925C47.4359 29.5925 48.6563 30.8129 48.6563 32.3159C48.6563 33.8191 47.4359 35.0393 45.9329 35.0393C44.4297 35.0393 43.2095 33.8191 43.2095 32.3159C43.2095 30.8129 44.4297 29.5925 45.9329 29.5925Z" fill="#EBCB80"/>
<path fill-rule="evenodd" clip-rule="evenodd" d="M45.9329 17.9516C47.4359 17.9516 48.6563 19.1719 48.6563 20.675C48.6563 22.1782 47.4359 23.3984 45.9329 23.3984C44.4297 23.3984 43.2095 22.1782 43.2095 20.675C43.2095 19.1719 44.4297 17.9516 45.9329 17.9516Z" fill="#EBCB80"/>
<path fill-rule="evenodd" clip-rule="evenodd" d="M10.5288 58.1883H18.699V52.7414H10.5288V58.1883Z" stroke="#EBCB80" stroke-width="2" stroke-linecap="round"/>
<path fill-rule="evenodd" clip-rule="evenodd" d="M45.9331 58.1883H54.1033V52.7414H45.9331V58.1883Z" stroke="#EBCB80" stroke-width="2" stroke-linecap="round"/>
</svg>
