<svg width="50" height="50" viewBox="0 0 50 50" fill="none" xmlns="http://www.w3.org/2000/svg">
<path fill-rule="evenodd" clip-rule="evenodd" d="M25 50C38.8071 50 50 38.8071 50 25C50 11.1929 38.8071 0 25 0C11.1929 0 0 11.1929 0 25C0 38.8071 11.1929 50 25 50Z" fill="#4B4B4B"/>
<path fill-rule="evenodd" clip-rule="evenodd" d="M35.4418 36.5198H15.0551C13.9279 36.5198 13.0146 35.606 13.0146 34.4788V19.4118C13.0146 18.2847 13.9279 17.3708 15.0551 17.3708H35.4418C36.5689 17.3708 37.4827 18.2847 37.4827 19.4118V34.4788C37.4827 35.606 36.5689 36.5198 35.4418 36.5198V36.5198Z" stroke="white"/>
<path fill-rule="evenodd" clip-rule="evenodd" d="M32.1628 30.1369H37.482V23.7539H32.1628C30.9878 23.7539 30.0352 24.7066 30.0352 25.8816V28.0092C30.0352 29.1842 30.9878 30.1369 32.1628 30.1369V30.1369Z" stroke="white"/>
<path fill-rule="evenodd" clip-rule="evenodd" d="M33.2269 28.0093C32.6391 28.0093 32.1631 27.5332 32.1631 26.9454C32.1631 26.3577 32.6391 25.8816 33.2269 25.8816C33.8147 25.8816 34.2907 26.3577 34.2907 26.9454C34.2907 27.5332 33.8147 28.0093 33.2269 28.0093Z" fill="white"/>
<path d="M23.6523 17.3709L31.0992 12.0518L34.2906 17.3709" stroke="white"/>
<path d="M18.333 17.3709L23.6522 12.0518L26.8436 15.2432" stroke="white"/>
</svg>
